<mxfile host="65bd71144e">
    <diagram id="nLoT0ighX-ZYQnMHNk7I" name="Page-1">
        <mxGraphModel dx="2332" dy="2228" grid="1" gridSize="10" guides="1" tooltips="1" connect="1" arrows="1" fold="1" page="0" pageScale="1" pageWidth="963" pageHeight="728" math="0" shadow="0">
            <root>
                <mxCell id="0"/>
                <mxCell id="1" parent="0"/>
                <mxCell id="175" value="" style="group" parent="1" vertex="1" connectable="0">
                    <mxGeometry x="80" y="30" width="1070" height="360" as="geometry"/>
                </mxCell>
                <mxCell id="41" value="" style="group" parent="175" vertex="1" connectable="0">
                    <mxGeometry width="1070" height="360" as="geometry"/>
                </mxCell>
                <mxCell id="12" value="dashboard flowchart" style="shape=umlFrame;whiteSpace=wrap;html=1;width=130;height=26;boundedLbl=1;verticalAlign=middle;align=left;spacingLeft=5;" parent="41" vertex="1">
                    <mxGeometry x="-67" width="1070" height="360" as="geometry"/>
                </mxCell>
                <mxCell id="30" value="&lt;font style=&quot;font-size: 10px;&quot;&gt;PROFILE&lt;/font&gt;" style="rounded=0;whiteSpace=wrap;html=1;fillColor=#003366;" parent="41" vertex="1">
                    <mxGeometry x="53" y="60" width="50" height="20" as="geometry"/>
                </mxCell>
                <mxCell id="37" value="VIEW" style="rhombus;whiteSpace=wrap;html=1;labelBackgroundColor=none;fontSize=10;fontColor=#FFFFFF;fillColor=#336600;" parent="41" vertex="1">
                    <mxGeometry x="55.5" y="100" width="45" height="40" as="geometry"/>
                </mxCell>
                <mxCell id="38" style="edgeStyle=none;html=1;exitX=0.5;exitY=1;exitDx=0;exitDy=0;fontSize=10;fontColor=#FFFFFF;" parent="41" source="30" target="37" edge="1">
                    <mxGeometry relative="1" as="geometry"/>
                </mxCell>
                <mxCell id="39" value="EDIT" style="rhombus;whiteSpace=wrap;html=1;labelBackgroundColor=none;fontSize=10;fontColor=#FFFFFF;fillColor=#336600;" parent="41" vertex="1">
                    <mxGeometry x="55.5" y="160" width="45" height="40" as="geometry"/>
                </mxCell>
                <mxCell id="40" style="edgeStyle=none;html=1;entryX=0.5;entryY=0;entryDx=0;entryDy=0;fontSize=10;fontColor=#FFFFFF;" parent="41" source="37" target="39" edge="1">
                    <mxGeometry relative="1" as="geometry"/>
                </mxCell>
                <mxCell id="43" style="edgeStyle=none;html=1;entryX=0.5;entryY=0;entryDx=0;entryDy=0;fontSize=10;fontColor=#FFFFFF;exitX=0;exitY=1;exitDx=0;exitDy=0;" parent="41" source="42" target="30" edge="1">
                    <mxGeometry relative="1" as="geometry">
                        <mxPoint x="263" y="40" as="sourcePoint"/>
                        <Array as="points">
                            <mxPoint x="78" y="40"/>
                        </Array>
                    </mxGeometry>
                </mxCell>
                <mxCell id="55" style="edgeStyle=none;html=1;exitX=0;exitY=1;exitDx=0;exitDy=0;entryX=0.5;entryY=0;entryDx=0;entryDy=0;fontSize=10;fontColor=#FFFFFF;" parent="41" source="42" target="45" edge="1">
                    <mxGeometry relative="1" as="geometry">
                        <Array as="points">
                            <mxPoint x="199" y="40"/>
                        </Array>
                    </mxGeometry>
                </mxCell>
                <mxCell id="57" style="edgeStyle=none;html=1;exitX=0;exitY=1;exitDx=0;exitDy=0;entryX=0.618;entryY=0.003;entryDx=0;entryDy=0;fontSize=10;fontColor=#FFFFFF;entryPerimeter=0;dashed=1;" parent="41" source="42" target="44" edge="1">
                    <mxGeometry relative="1" as="geometry">
                        <Array as="points">
                            <mxPoint x="251" y="40"/>
                        </Array>
                    </mxGeometry>
                </mxCell>
                <mxCell id="64" style="edgeStyle=none;html=1;exitX=1;exitY=1;exitDx=0;exitDy=0;entryX=0.5;entryY=0;entryDx=0;entryDy=0;fontSize=10;fontColor=#FFFFFF;" parent="41" source="42" target="56" edge="1">
                    <mxGeometry relative="1" as="geometry">
                        <Array as="points">
                            <mxPoint x="332" y="40"/>
                        </Array>
                    </mxGeometry>
                </mxCell>
                <mxCell id="90" style="edgeStyle=none;html=1;exitX=1;exitY=1;exitDx=0;exitDy=0;entryX=0.5;entryY=0;entryDx=0;entryDy=0;fontSize=10;fontColor=#FFFFFF;" parent="41" source="42" target="84" edge="1">
                    <mxGeometry relative="1" as="geometry">
                        <Array as="points">
                            <mxPoint x="442" y="40"/>
                        </Array>
                    </mxGeometry>
                </mxCell>
                <mxCell id="97" style="edgeStyle=none;html=1;exitX=1;exitY=1;exitDx=0;exitDy=0;entryX=0.5;entryY=0;entryDx=0;entryDy=0;fontSize=10;fontColor=#FFFFFF;" parent="41" source="42" target="92" edge="1">
                    <mxGeometry relative="1" as="geometry">
                        <Array as="points">
                            <mxPoint x="522" y="40"/>
                        </Array>
                    </mxGeometry>
                </mxCell>
                <mxCell id="100" style="edgeStyle=none;html=1;exitX=1;exitY=1;exitDx=0;exitDy=0;entryX=0.5;entryY=0;entryDx=0;entryDy=0;fontSize=10;fontColor=#FFFFFF;" parent="41" source="42" target="99" edge="1">
                    <mxGeometry relative="1" as="geometry">
                        <Array as="points">
                            <mxPoint x="682" y="40"/>
                        </Array>
                    </mxGeometry>
                </mxCell>
                <mxCell id="174" style="edgeStyle=none;html=1;exitX=1;exitY=1;exitDx=0;exitDy=0;entryX=0.5;entryY=0;entryDx=0;entryDy=0;fontSize=10;fontColor=#FFFFFF;" parent="41" source="42" target="173" edge="1">
                    <mxGeometry relative="1" as="geometry">
                        <Array as="points">
                            <mxPoint x="883" y="40"/>
                        </Array>
                    </mxGeometry>
                </mxCell>
                <mxCell id="42" value="&lt;span style=&quot;font-size: 10px;&quot;&gt;DASHBOARD&lt;/span&gt;" style="rounded=0;whiteSpace=wrap;html=1;fillColor=#d80073;fontColor=#ffffff;strokeColor=#A50040;" parent="41" vertex="1">
                    <mxGeometry x="349" y="20" width="70" height="20" as="geometry"/>
                </mxCell>
                <mxCell id="54" style="edgeStyle=none;html=1;entryX=0.5;entryY=0;entryDx=0;entryDy=0;fontSize=10;fontColor=#FFFFFF;" parent="41" source="44" target="53" edge="1">
                    <mxGeometry relative="1" as="geometry"/>
                </mxCell>
                <mxCell id="44" value="&lt;font style=&quot;font-size: 10px;&quot;&gt;APPOINTMENT&lt;/font&gt;" style="rounded=0;whiteSpace=wrap;html=1;fillColor=#e3c800;fontColor=#000000;strokeColor=#B09500;" parent="41" vertex="1">
                    <mxGeometry x="203" y="160" width="77" height="20" as="geometry"/>
                </mxCell>
                <mxCell id="48" style="edgeStyle=none;html=1;exitX=0.5;exitY=1;exitDx=0;exitDy=0;entryX=0.5;entryY=0;entryDx=0;entryDy=0;fontSize=10;fontColor=#FFFFFF;" parent="41" source="45" target="46" edge="1">
                    <mxGeometry relative="1" as="geometry"/>
                </mxCell>
                <mxCell id="45" value="&lt;span style=&quot;font-size: 10px;&quot;&gt;CALENDER&lt;/span&gt;" style="rounded=0;whiteSpace=wrap;html=1;fillColor=#003366;" parent="41" vertex="1">
                    <mxGeometry x="170" y="60" width="57" height="20" as="geometry"/>
                </mxCell>
                <mxCell id="51" style="edgeStyle=none;html=1;entryX=0.5;entryY=0;entryDx=0;entryDy=0;fontSize=10;fontColor=#FFFFFF;exitX=0.5;exitY=1;exitDx=0;exitDy=0;" parent="41" source="46" target="49" edge="1">
                    <mxGeometry relative="1" as="geometry">
                        <Array as="points">
                            <mxPoint x="162" y="140"/>
                        </Array>
                    </mxGeometry>
                </mxCell>
                <mxCell id="52" style="edgeStyle=none;html=1;entryX=0.5;entryY=0;entryDx=0;entryDy=0;fontSize=10;fontColor=#FFFFFF;exitX=0.5;exitY=1;exitDx=0;exitDy=0;" parent="41" source="46" target="44" edge="1">
                    <mxGeometry relative="1" as="geometry">
                        <Array as="points">
                            <mxPoint x="243" y="140"/>
                        </Array>
                    </mxGeometry>
                </mxCell>
                <mxCell id="46" value="VIEW" style="rhombus;whiteSpace=wrap;html=1;labelBackgroundColor=none;fontSize=10;fontColor=#FFFFFF;fillColor=#336600;" parent="41" vertex="1">
                    <mxGeometry x="176" y="100" width="45" height="40" as="geometry"/>
                </mxCell>
                <mxCell id="49" value="&lt;span style=&quot;font-size: 10px;&quot;&gt;EVENT&lt;/span&gt;" style="rounded=0;whiteSpace=wrap;html=1;fillColor=#003366;" parent="41" vertex="1">
                    <mxGeometry x="133" y="160" width="57" height="20" as="geometry"/>
                </mxCell>
                <mxCell id="53" value="&lt;span style=&quot;font-size: 10px;&quot;&gt;BEGIN&lt;/span&gt;" style="rounded=0;whiteSpace=wrap;html=1;fillColor=#003366;" parent="41" vertex="1">
                    <mxGeometry x="213" y="200" width="57" height="20" as="geometry"/>
                </mxCell>
                <mxCell id="61" style="edgeStyle=none;html=1;exitX=0.5;exitY=1;exitDx=0;exitDy=0;entryX=0.5;entryY=0;entryDx=0;entryDy=0;fontSize=10;fontColor=#FFFFFF;" parent="41" source="56" target="58" edge="1">
                    <mxGeometry relative="1" as="geometry"/>
                </mxCell>
                <mxCell id="56" value="&lt;span style=&quot;font-size: 10px;&quot;&gt;PATIENT&lt;/span&gt;" style="rounded=0;whiteSpace=wrap;html=1;fillColor=#e3c800;fontColor=#000000;strokeColor=#B09500;" parent="41" vertex="1">
                    <mxGeometry x="303" y="60" width="57" height="20" as="geometry"/>
                </mxCell>
                <mxCell id="63" style="edgeStyle=none;html=1;exitX=0.5;exitY=1;exitDx=0;exitDy=0;entryX=0.5;entryY=0;entryDx=0;entryDy=0;fontSize=10;fontColor=#FFFFFF;" parent="41" source="58" target="59" edge="1">
                    <mxGeometry relative="1" as="geometry"/>
                </mxCell>
                <mxCell id="58" value="&lt;font style=&quot;font-size: 10px;&quot;&gt;QUEUE&lt;/font&gt;" style="rounded=0;whiteSpace=wrap;html=1;fillColor=#003366;" parent="41" vertex="1">
                    <mxGeometry x="303" y="110" width="57" height="20" as="geometry"/>
                </mxCell>
                <mxCell id="68" style="edgeStyle=none;html=1;exitX=0.5;exitY=1;exitDx=0;exitDy=0;entryX=0.5;entryY=0;entryDx=0;entryDy=0;fontSize=10;fontColor=#FFFFFF;" parent="41" source="59" target="67" edge="1">
                    <mxGeometry relative="1" as="geometry"/>
                </mxCell>
                <mxCell id="59" value="&lt;font style=&quot;font-size: 10px;&quot;&gt;INDIVIDUAL PROFILE&lt;/font&gt;" style="rounded=0;whiteSpace=wrap;html=1;fillColor=#003366;" parent="41" vertex="1">
                    <mxGeometry x="298" y="155" width="67" height="30" as="geometry"/>
                </mxCell>
                <mxCell id="70" style="edgeStyle=none;html=1;exitX=0.5;exitY=1;exitDx=0;exitDy=0;entryX=0.5;entryY=0;entryDx=0;entryDy=0;fontSize=10;fontColor=#FFFFFF;" parent="41" source="67" target="69" edge="1">
                    <mxGeometry relative="1" as="geometry">
                        <Array as="points">
                            <mxPoint x="233" y="250"/>
                        </Array>
                    </mxGeometry>
                </mxCell>
                <mxCell id="73" style="edgeStyle=none;html=1;exitX=0.5;exitY=1;exitDx=0;exitDy=0;entryX=0.5;entryY=0;entryDx=0;entryDy=0;fontSize=10;fontColor=#FFFFFF;" parent="41" source="67" target="71" edge="1">
                    <mxGeometry relative="1" as="geometry"/>
                </mxCell>
                <mxCell id="76" style="edgeStyle=none;html=1;exitX=0.5;exitY=1;exitDx=0;exitDy=0;entryX=0.5;entryY=0;entryDx=0;entryDy=0;fontSize=10;fontColor=#FFFFFF;" parent="41" source="67" target="75" edge="1">
                    <mxGeometry relative="1" as="geometry">
                        <Array as="points">
                            <mxPoint x="422" y="250"/>
                        </Array>
                    </mxGeometry>
                </mxCell>
                <mxCell id="67" value="VIEW" style="rhombus;whiteSpace=wrap;html=1;labelBackgroundColor=none;fontSize=10;fontColor=#FFFFFF;fillColor=#336600;" parent="41" vertex="1">
                    <mxGeometry x="309" y="210" width="45" height="40" as="geometry"/>
                </mxCell>
                <mxCell id="69" value="&lt;span style=&quot;font-size: 10px;&quot;&gt;PATIENT INFO&lt;/span&gt;" style="rounded=0;whiteSpace=wrap;html=1;fillColor=#003366;" parent="41" vertex="1">
                    <mxGeometry x="195" y="268" width="75" height="18" as="geometry"/>
                </mxCell>
                <mxCell id="71" value="&lt;span style=&quot;font-size: 10px;&quot;&gt;MEDICAL HISTORY&lt;/span&gt;" style="rounded=0;whiteSpace=wrap;html=1;fillColor=#003366;" parent="41" vertex="1">
                    <mxGeometry x="284" y="266" width="95" height="22" as="geometry"/>
                </mxCell>
                <mxCell id="80" style="edgeStyle=none;html=1;entryX=0.5;entryY=0;entryDx=0;entryDy=0;fontSize=10;fontColor=#FFFFFF;" parent="41" target="77" edge="1">
                    <mxGeometry relative="1" as="geometry">
                        <mxPoint x="423" y="300" as="sourcePoint"/>
                        <Array as="points">
                            <mxPoint x="338" y="300"/>
                        </Array>
                    </mxGeometry>
                </mxCell>
                <mxCell id="82" style="edgeStyle=none;html=1;entryX=0.5;entryY=0;entryDx=0;entryDy=0;fontSize=10;fontColor=#FFFFFF;" parent="41" target="79" edge="1">
                    <mxGeometry relative="1" as="geometry">
                        <mxPoint x="422" y="300" as="sourcePoint"/>
                        <Array as="points">
                            <mxPoint x="503" y="300"/>
                        </Array>
                    </mxGeometry>
                </mxCell>
                <mxCell id="83" style="edgeStyle=none;html=1;exitX=0.5;exitY=1;exitDx=0;exitDy=0;entryX=0.5;entryY=0;entryDx=0;entryDy=0;fontSize=10;fontColor=#FFFFFF;" parent="41" source="75" target="78" edge="1">
                    <mxGeometry relative="1" as="geometry"/>
                </mxCell>
                <mxCell id="75" value="&lt;span style=&quot;font-size: 10px;&quot;&gt;EDIT&lt;/span&gt;" style="rounded=0;whiteSpace=wrap;html=1;fillColor=#003366;" parent="41" vertex="1">
                    <mxGeometry x="393" y="266" width="57" height="20" as="geometry"/>
                </mxCell>
                <mxCell id="77" value="&lt;span style=&quot;font-size: 10px;&quot;&gt;SCHEDULE&lt;/span&gt;" style="rounded=0;whiteSpace=wrap;html=1;fillColor=#003366;" parent="41" vertex="1">
                    <mxGeometry x="309" y="320" width="57" height="20" as="geometry"/>
                </mxCell>
                <mxCell id="78" value="&lt;span style=&quot;font-size: 10px;&quot;&gt;PRESCRIPTION&lt;/span&gt;" style="rounded=0;whiteSpace=wrap;html=1;fillColor=#003366;" parent="41" vertex="1">
                    <mxGeometry x="383" y="320" width="77" height="20" as="geometry"/>
                </mxCell>
                <mxCell id="79" value="&lt;span style=&quot;font-size: 10px;&quot;&gt;NOTES&lt;/span&gt;" style="rounded=0;whiteSpace=wrap;html=1;fillColor=#003366;" parent="41" vertex="1">
                    <mxGeometry x="473" y="320" width="57" height="20" as="geometry"/>
                </mxCell>
                <mxCell id="87" style="edgeStyle=none;html=1;exitX=0.5;exitY=1;exitDx=0;exitDy=0;fontSize=10;fontColor=#FFFFFF;" parent="41" source="84" target="85" edge="1">
                    <mxGeometry relative="1" as="geometry"/>
                </mxCell>
                <mxCell id="84" value="&lt;span style=&quot;font-size: 10px;&quot;&gt;TASK&amp;nbsp;&lt;/span&gt;" style="rounded=0;whiteSpace=wrap;html=1;fillColor=#e3c800;fontColor=#000000;strokeColor=#B09500;" parent="41" vertex="1">
                    <mxGeometry x="413" y="60" width="57" height="20" as="geometry"/>
                </mxCell>
                <mxCell id="89" style="edgeStyle=none;html=1;exitX=0.5;exitY=1;exitDx=0;exitDy=0;entryX=0.5;entryY=0;entryDx=0;entryDy=0;fontSize=10;fontColor=#FFFFFF;" parent="41" source="85" target="88" edge="1">
                    <mxGeometry relative="1" as="geometry"/>
                </mxCell>
                <mxCell id="85" value="VIEW" style="rhombus;whiteSpace=wrap;html=1;labelBackgroundColor=none;fontSize=10;fontColor=#FFFFFF;fillColor=#336600;" parent="41" vertex="1">
                    <mxGeometry x="419" y="100" width="45" height="40" as="geometry"/>
                </mxCell>
                <mxCell id="88" value="EDIT" style="rhombus;whiteSpace=wrap;html=1;labelBackgroundColor=none;fontSize=10;fontColor=#FFFFFF;fillColor=#336600;" parent="41" vertex="1">
                    <mxGeometry x="419" y="160" width="45" height="40" as="geometry"/>
                </mxCell>
                <mxCell id="95" style="edgeStyle=none;html=1;exitX=0.5;exitY=1;exitDx=0;exitDy=0;fontSize=10;fontColor=#FFFFFF;" parent="41" source="92" target="93" edge="1">
                    <mxGeometry relative="1" as="geometry"/>
                </mxCell>
                <mxCell id="92" value="&lt;span style=&quot;font-size: 10px;&quot;&gt;ACTIVITY&lt;/span&gt;" style="rounded=0;whiteSpace=wrap;html=1;fillColor=#003366;" parent="41" vertex="1">
                    <mxGeometry x="493" y="60" width="57" height="20" as="geometry"/>
                </mxCell>
                <mxCell id="96" style="edgeStyle=none;html=1;exitX=0.5;exitY=1;exitDx=0;exitDy=0;entryX=0.5;entryY=0;entryDx=0;entryDy=0;fontSize=10;fontColor=#FFFFFF;" parent="41" source="93" target="94" edge="1">
                    <mxGeometry relative="1" as="geometry"/>
                </mxCell>
                <mxCell id="93" value="VIEW" style="rhombus;whiteSpace=wrap;html=1;labelBackgroundColor=none;fontSize=10;fontColor=#FFFFFF;fillColor=#336600;" parent="41" vertex="1">
                    <mxGeometry x="499" y="100" width="45" height="40" as="geometry"/>
                </mxCell>
                <mxCell id="94" value="EDIT" style="rhombus;whiteSpace=wrap;html=1;labelBackgroundColor=none;fontSize=10;fontColor=#FFFFFF;fillColor=#336600;" parent="41" vertex="1">
                    <mxGeometry x="499" y="160" width="45" height="40" as="geometry"/>
                </mxCell>
                <mxCell id="163" style="edgeStyle=none;html=1;entryX=0.5;entryY=0;entryDx=0;entryDy=0;fontSize=10;fontColor=#FFFFFF;" parent="41" target="158" edge="1">
                    <mxGeometry relative="1" as="geometry">
                        <mxPoint x="683" y="160" as="sourcePoint"/>
                        <Array as="points">
                            <mxPoint x="603" y="160"/>
                        </Array>
                    </mxGeometry>
                </mxCell>
                <mxCell id="164" style="edgeStyle=none;html=1;entryX=0.5;entryY=0;entryDx=0;entryDy=0;fontSize=10;fontColor=#FFFFFF;" parent="41" target="159" edge="1">
                    <mxGeometry relative="1" as="geometry">
                        <mxPoint x="682" y="160" as="sourcePoint"/>
                        <Array as="points">
                            <mxPoint x="773" y="160"/>
                        </Array>
                    </mxGeometry>
                </mxCell>
                <mxCell id="165" style="edgeStyle=none;html=1;entryX=0.5;entryY=0;entryDx=0;entryDy=0;fontSize=10;fontColor=#FFFFFF;" parent="41" target="101" edge="1">
                    <mxGeometry relative="1" as="geometry">
                        <mxPoint x="683" y="160" as="sourcePoint"/>
                        <Array as="points">
                            <mxPoint x="663" y="160"/>
                        </Array>
                    </mxGeometry>
                </mxCell>
                <mxCell id="166" style="edgeStyle=none;html=1;entryX=0.5;entryY=0;entryDx=0;entryDy=0;fontSize=10;fontColor=#FFFFFF;" parent="41" target="160" edge="1">
                    <mxGeometry relative="1" as="geometry">
                        <mxPoint x="683" y="160" as="sourcePoint"/>
                        <Array as="points">
                            <mxPoint x="712" y="160"/>
                        </Array>
                    </mxGeometry>
                </mxCell>
                <mxCell id="99" value="&lt;span style=&quot;font-size: 10px;&quot;&gt;REPORT&lt;/span&gt;" style="rounded=0;whiteSpace=wrap;html=1;fillColor=#e3c800;fontColor=#000000;strokeColor=#B09500;" parent="41" vertex="1">
                    <mxGeometry x="653" y="60" width="57" height="20" as="geometry"/>
                </mxCell>
                <mxCell id="101" value="&lt;span style=&quot;font-size: 10px;&quot;&gt;LAB&lt;/span&gt;" style="rounded=0;whiteSpace=wrap;html=1;fillColor=#003366;" parent="41" vertex="1">
                    <mxGeometry x="643" y="180" width="37" height="20" as="geometry"/>
                </mxCell>
                <mxCell id="158" value="&lt;span style=&quot;font-size: 10px;&quot;&gt;&lt;font color=&quot;#ffffff&quot;&gt;PATIENT&lt;/font&gt;&lt;/span&gt;" style="rounded=0;whiteSpace=wrap;html=1;fillColor=#003366;fontColor=#000000;strokeColor=#FFFFFF;" parent="41" vertex="1">
                    <mxGeometry x="573" y="180" width="57" height="20" as="geometry"/>
                </mxCell>
                <mxCell id="159" value="&lt;font color=&quot;#ffffff&quot;&gt;&lt;span style=&quot;font-size: 10px;&quot;&gt;DIAGNOSTIC&lt;/span&gt;&lt;/font&gt;" style="rounded=0;whiteSpace=wrap;html=1;fillColor=#003366;fontColor=#000000;strokeColor=#FFFFFF;" parent="41" vertex="1">
                    <mxGeometry x="743" y="180" width="67" height="20" as="geometry"/>
                </mxCell>
                <mxCell id="160" value="&lt;font color=&quot;#ffffff&quot;&gt;&lt;span style=&quot;font-size: 10px;&quot;&gt;ETC&lt;/span&gt;&lt;/font&gt;" style="rounded=0;whiteSpace=wrap;html=1;fillColor=#003366;fontColor=#000000;strokeColor=#FFFFFF;" parent="41" vertex="1">
                    <mxGeometry x="693" y="180" width="37" height="20" as="geometry"/>
                </mxCell>
                <mxCell id="169" value="VIEW" style="rhombus;whiteSpace=wrap;html=1;labelBackgroundColor=none;fontSize=10;fontColor=#FFFFFF;fillColor=#336600;" parent="41" vertex="1">
                    <mxGeometry x="659" y="100" width="45" height="40" as="geometry"/>
                </mxCell>
                <mxCell id="173" value="&lt;span style=&quot;font-size: 10px;&quot;&gt;STATS&lt;/span&gt;" style="rounded=0;whiteSpace=wrap;html=1;fillColor=#e3c800;fontColor=#000000;strokeColor=#B09500;" parent="41" vertex="1">
                    <mxGeometry x="853" y="60" width="57" height="20" as="geometry"/>
                </mxCell>
                <mxCell id="168" style="edgeStyle=none;html=1;exitX=0.5;exitY=1;exitDx=0;exitDy=0;fontSize=10;fontColor=#FFFFFF;" parent="175" source="99" edge="1">
                    <mxGeometry relative="1" as="geometry">
                        <mxPoint x="681.5" y="100" as="targetPoint"/>
                    </mxGeometry>
                </mxCell>
                <mxCell id="172" style="edgeStyle=none;html=1;exitX=0.5;exitY=1;exitDx=0;exitDy=0;fontSize=10;fontColor=#FFFFFF;" parent="175" source="169" edge="1">
                    <mxGeometry relative="1" as="geometry">
                        <mxPoint x="681.5" y="160" as="targetPoint"/>
                    </mxGeometry>
                </mxCell>
                <mxCell id="342" value="" style="group" vertex="1" connectable="0" parent="1">
                    <mxGeometry x="1340" y="-100" width="1120" height="950" as="geometry"/>
                </mxCell>
                <mxCell id="190" value="PROFILE" style="shape=umlLifeline;perimeter=lifelinePerimeter;whiteSpace=wrap;html=1;container=1;collapsible=0;recursiveResize=0;outlineConnect=0;" vertex="1" parent="342">
                    <mxGeometry x="250" y="100" width="100" height="800" as="geometry"/>
                </mxCell>
                <mxCell id="207" value="" style="endArrow=block;startArrow=none;endFill=0;startFill=0;endSize=8;html=1;verticalAlign=bottom;dashed=1;labelBackgroundColor=none;fontSize=9;" edge="1" parent="190" source="193">
                    <mxGeometry width="160" relative="1" as="geometry">
                        <mxPoint x="210" y="100" as="sourcePoint"/>
                        <mxPoint x="50" y="100" as="targetPoint"/>
                    </mxGeometry>
                </mxCell>
                <mxCell id="215" value="" style="endArrow=block;startArrow=none;endFill=0;startFill=0;endSize=8;html=1;verticalAlign=bottom;dashed=1;labelBackgroundColor=none;fontSize=9;" edge="1" parent="190">
                    <mxGeometry width="160" relative="1" as="geometry">
                        <mxPoint x="50" y="140" as="sourcePoint"/>
                        <mxPoint x="-100" y="140" as="targetPoint"/>
                    </mxGeometry>
                </mxCell>
                <mxCell id="228" value="" style="html=1;points=[];perimeter=orthogonalPerimeter;fillColor=strokeColor;fontSize=9;" vertex="1" parent="190">
                    <mxGeometry x="47.5" y="70" width="5" height="30" as="geometry"/>
                </mxCell>
                <mxCell id="230" value="" style="html=1;points=[];perimeter=orthogonalPerimeter;fillColor=strokeColor;fontSize=9;" vertex="1" parent="190">
                    <mxGeometry x="47.5" y="130" width="5" height="40" as="geometry"/>
                </mxCell>
                <mxCell id="245" value="" style="endArrow=block;startArrow=none;endFill=0;startFill=0;endSize=8;html=1;verticalAlign=bottom;dashed=1;labelBackgroundColor=none;fontSize=9;fillColor=none;" edge="1" parent="190">
                    <mxGeometry width="160" relative="1" as="geometry">
                        <mxPoint x="230" y="230" as="sourcePoint"/>
                        <mxPoint x="-100" y="230" as="targetPoint"/>
                    </mxGeometry>
                </mxCell>
                <mxCell id="247" value="SHOW APPOINTMENT" style="edgeLabel;html=1;align=center;verticalAlign=middle;resizable=0;points=[];fontSize=9;" vertex="1" connectable="0" parent="245">
                    <mxGeometry x="0.6147" y="4" relative="1" as="geometry">
                        <mxPoint x="7" y="6" as="offset"/>
                    </mxGeometry>
                </mxCell>
                <mxCell id="250" value="SCHEDUAL&amp;nbsp;&lt;br&gt;&amp;nbsp;APPOINTMENT" style="edgeLabel;html=1;align=center;verticalAlign=middle;resizable=0;points=[];fontSize=9;" vertex="1" connectable="0" parent="245">
                    <mxGeometry x="0.6147" y="4" relative="1" as="geometry">
                        <mxPoint x="7" y="36" as="offset"/>
                    </mxGeometry>
                </mxCell>
                <mxCell id="193" value="DOC'S DATABSE" style="shape=umlLifeline;perimeter=lifelinePerimeter;whiteSpace=wrap;html=1;container=1;collapsible=0;recursiveResize=0;outlineConnect=0;" vertex="1" parent="342">
                    <mxGeometry x="920" y="100" width="100" height="800" as="geometry"/>
                </mxCell>
                <mxCell id="218" value="" style="endArrow=block;startArrow=none;endFill=0;startFill=0;endSize=8;html=1;verticalAlign=bottom;labelBackgroundColor=none;" edge="1" parent="193" source="190">
                    <mxGeometry width="160" relative="1" as="geometry">
                        <mxPoint x="-110" y="149.29000000000002" as="sourcePoint"/>
                        <mxPoint x="50" y="149.29000000000002" as="targetPoint"/>
                    </mxGeometry>
                </mxCell>
                <mxCell id="229" value="" style="html=1;points=[];perimeter=orthogonalPerimeter;fillColor=strokeColor;fontSize=9;" vertex="1" parent="193">
                    <mxGeometry x="47.5" y="70" width="5" height="30" as="geometry"/>
                </mxCell>
                <mxCell id="317" value="" style="html=1;points=[];perimeter=orthogonalPerimeter;fillColor=strokeColor;fontSize=12;fontColor=#FFFFFF;" vertex="1" parent="193">
                    <mxGeometry x="47.5" y="140" width="5" height="40" as="geometry"/>
                </mxCell>
                <mxCell id="319" value="" style="html=1;points=[];perimeter=orthogonalPerimeter;fillColor=strokeColor;fontSize=12;fontColor=#FFFFFF;" vertex="1" parent="193">
                    <mxGeometry x="47.5" y="210" width="5" height="100" as="geometry"/>
                </mxCell>
                <mxCell id="322" value="" style="html=1;points=[];perimeter=orthogonalPerimeter;fillColor=strokeColor;fontSize=12;fontColor=#FFFFFF;" vertex="1" parent="193">
                    <mxGeometry x="47.5" y="346" width="5" height="284" as="geometry"/>
                </mxCell>
                <mxCell id="194" value="" style="group" vertex="1" connectable="0" parent="342">
                    <mxGeometry x="130" y="50" width="30" height="410" as="geometry"/>
                </mxCell>
                <mxCell id="188" style="edgeStyle=none;html=1;endArrow=none;endFill=0;dashed=1;" edge="1" parent="194">
                    <mxGeometry relative="1" as="geometry">
                        <mxPoint x="14" y="850" as="targetPoint"/>
                        <mxPoint x="14" y="90" as="sourcePoint"/>
                    </mxGeometry>
                </mxCell>
                <mxCell id="185" value="DOCTOR" style="shape=umlActor;verticalLabelPosition=bottom;verticalAlign=top;html=1;" vertex="1" parent="194">
                    <mxGeometry width="30" height="60" as="geometry"/>
                </mxCell>
                <mxCell id="210" value="" style="edgeStyle=none;orthogonalLoop=1;jettySize=auto;html=1;shape=flexArrow;rounded=1;startSize=8;endSize=8;fontSize=9;endArrow=none;endFill=0;fillColor=#f5f5f5;gradientColor=#b3b3b3;strokeColor=#666666;" edge="1" parent="194">
                    <mxGeometry width="100" relative="1" as="geometry">
                        <mxPoint x="14.38000000000011" y="100" as="sourcePoint"/>
                        <mxPoint x="14" y="220" as="targetPoint"/>
                        <Array as="points"/>
                    </mxGeometry>
                </mxCell>
                <mxCell id="239" value="" style="endArrow=block;startArrow=none;endFill=0;startFill=0;endSize=8;html=1;verticalAlign=bottom;labelBackgroundColor=none;fontSize=12;fillColor=none;" edge="1" parent="194" target="237">
                    <mxGeometry width="160" relative="1" as="geometry">
                        <mxPoint x="10" y="260" as="sourcePoint"/>
                        <mxPoint x="170" y="260" as="targetPoint"/>
                    </mxGeometry>
                </mxCell>
                <mxCell id="248" value="" style="edgeStyle=none;orthogonalLoop=1;jettySize=auto;html=1;shape=flexArrow;rounded=1;startSize=8;endSize=8;fontSize=9;endArrow=none;endFill=0;fillColor=#f5f5f5;gradientColor=#b3b3b3;strokeColor=#666666;" edge="1" parent="194">
                    <mxGeometry width="100" relative="1" as="geometry">
                        <mxPoint x="14.900000000000091" y="230" as="sourcePoint"/>
                        <mxPoint x="15" y="380" as="targetPoint"/>
                        <Array as="points"/>
                    </mxGeometry>
                </mxCell>
                <mxCell id="249" value="" style="endArrow=block;startArrow=none;endFill=0;startFill=0;endSize=8;html=1;verticalAlign=bottom;labelBackgroundColor=none;fontSize=9;fillColor=none;" edge="1" parent="194" target="237">
                    <mxGeometry width="160" relative="1" as="geometry">
                        <mxPoint x="10" y="330" as="sourcePoint"/>
                        <mxPoint x="170" y="310" as="targetPoint"/>
                    </mxGeometry>
                </mxCell>
                <mxCell id="265" value="" style="endArrow=block;startArrow=none;endFill=0;startFill=0;endSize=8;html=1;verticalAlign=bottom;labelBackgroundColor=none;fontSize=9;fillColor=none;" edge="1" parent="194" target="262">
                    <mxGeometry width="160" relative="1" as="geometry">
                        <mxPoint x="10" y="410" as="sourcePoint"/>
                        <mxPoint x="170" y="410" as="targetPoint"/>
                    </mxGeometry>
                </mxCell>
                <mxCell id="275" value="" style="endArrow=block;startArrow=none;endFill=0;startFill=0;endSize=8;html=1;verticalAlign=bottom;labelBackgroundColor=none;fontSize=11;fillColor=none;" edge="1" parent="194" target="262">
                    <mxGeometry width="160" relative="1" as="geometry">
                        <mxPoint x="10" y="500" as="sourcePoint"/>
                        <mxPoint x="160" y="500" as="targetPoint"/>
                    </mxGeometry>
                </mxCell>
                <mxCell id="294" value="" style="endArrow=block;startArrow=none;endFill=0;startFill=0;endSize=8;html=1;verticalAlign=bottom;labelBackgroundColor=none;fontSize=9;fillColor=none;" edge="1" parent="194" target="237">
                    <mxGeometry width="160" relative="1" as="geometry">
                        <mxPoint x="10" y="620" as="sourcePoint"/>
                        <mxPoint x="170" y="620" as="targetPoint"/>
                    </mxGeometry>
                </mxCell>
                <mxCell id="335" value="" style="edgeStyle=none;orthogonalLoop=1;jettySize=auto;html=1;shape=flexArrow;rounded=1;startSize=8;endSize=8;fontSize=9;endArrow=none;endFill=0;fillColor=#f5f5f5;gradientColor=#b3b3b3;strokeColor=#666666;" edge="1" parent="194">
                    <mxGeometry width="100" relative="1" as="geometry">
                        <mxPoint x="14.659999999999854" y="739.9999999999998" as="sourcePoint"/>
                        <mxPoint x="14" y="810" as="targetPoint"/>
                        <Array as="points"/>
                    </mxGeometry>
                </mxCell>
                <mxCell id="202" value="" style="endArrow=block;startArrow=none;endFill=0;startFill=0;endSize=8;html=1;verticalAlign=bottom;labelBackgroundColor=none;" edge="1" parent="342">
                    <mxGeometry width="160" relative="1" as="geometry">
                        <mxPoint x="150" y="170" as="sourcePoint"/>
                        <mxPoint x="300" y="170" as="targetPoint"/>
                    </mxGeometry>
                </mxCell>
                <mxCell id="203" value="&lt;font style=&quot;font-size: 9px;&quot;&gt;EDIT PROFILE&lt;/font&gt;" style="text;html=1;align=center;verticalAlign=middle;resizable=0;points=[];autosize=1;strokeColor=none;fillColor=none;" vertex="1" parent="342">
                    <mxGeometry x="175" y="145" width="80" height="30" as="geometry"/>
                </mxCell>
                <mxCell id="205" value="" style="endArrow=block;startArrow=none;endFill=0;startFill=0;endSize=8;html=1;verticalAlign=bottom;labelBackgroundColor=none;" edge="1" parent="342" target="193">
                    <mxGeometry width="160" relative="1" as="geometry">
                        <mxPoint x="300" y="180" as="sourcePoint"/>
                        <mxPoint x="460" y="180" as="targetPoint"/>
                    </mxGeometry>
                </mxCell>
                <mxCell id="206" value="MOFIDY&amp;nbsp;" style="text;html=1;align=center;verticalAlign=middle;resizable=0;points=[];autosize=1;strokeColor=none;fillColor=none;fontSize=9;" vertex="1" parent="342">
                    <mxGeometry x="350" y="160" width="60" height="20" as="geometry"/>
                </mxCell>
                <mxCell id="209" value="MODIFIED&amp;nbsp;" style="text;html=1;align=center;verticalAlign=middle;resizable=0;points=[];autosize=1;strokeColor=none;fillColor=none;fontSize=9;" vertex="1" parent="342">
                    <mxGeometry x="345" y="200" width="70" height="20" as="geometry"/>
                </mxCell>
                <mxCell id="212" value="" style="endArrow=block;startArrow=none;endFill=0;startFill=0;endSize=8;html=1;verticalAlign=bottom;labelBackgroundColor=none;" edge="1" parent="342">
                    <mxGeometry width="160" relative="1" as="geometry">
                        <mxPoint x="150" y="230" as="sourcePoint"/>
                        <mxPoint x="300" y="230" as="targetPoint"/>
                    </mxGeometry>
                </mxCell>
                <mxCell id="213" value="CHANGE PASSWORD" style="text;html=1;align=center;verticalAlign=middle;resizable=0;points=[];autosize=1;strokeColor=none;fillColor=none;fontSize=9;" vertex="1" parent="342">
                    <mxGeometry x="160" y="210" width="120" height="20" as="geometry"/>
                </mxCell>
                <mxCell id="217" value="AUTHENTICATE" style="text;html=1;align=center;verticalAlign=middle;resizable=0;points=[];autosize=1;strokeColor=none;fillColor=none;fontSize=9;" vertex="1" parent="342">
                    <mxGeometry x="170" y="240" width="90" height="20" as="geometry"/>
                </mxCell>
                <mxCell id="219" value="AUTHENTICATED" style="text;html=1;align=center;verticalAlign=middle;resizable=0;points=[];autosize=1;strokeColor=none;fillColor=none;fontSize=9;" vertex="1" parent="342">
                    <mxGeometry x="320" y="230" width="100" height="20" as="geometry"/>
                </mxCell>
                <mxCell id="222" value="" style="endArrow=block;startArrow=none;endFill=0;startFill=0;endSize=8;html=1;verticalAlign=bottom;dashed=1;labelBackgroundColor=none;fontSize=9;fillColor=none;" edge="1" parent="342" source="193">
                    <mxGeometry width="160" relative="1" as="geometry">
                        <mxPoint x="460" y="268.57" as="sourcePoint"/>
                        <mxPoint x="300" y="268.57" as="targetPoint"/>
                    </mxGeometry>
                </mxCell>
                <mxCell id="223" value="PASSWORD CHANGED" style="text;html=1;align=center;verticalAlign=middle;resizable=0;points=[];autosize=1;strokeColor=none;fillColor=none;fontSize=9;" vertex="1" parent="342">
                    <mxGeometry x="320" y="271" width="120" height="20" as="geometry"/>
                </mxCell>
                <mxCell id="237" value="&lt;font style=&quot;font-size: 12px;&quot;&gt;APPOINTMENT&lt;/font&gt;" style="shape=umlLifeline;perimeter=lifelinePerimeter;whiteSpace=wrap;html=1;container=1;collapsible=0;recursiveResize=0;outlineConnect=0;fontSize=9;" vertex="1" parent="342">
                    <mxGeometry x="430" y="100" width="100" height="800" as="geometry"/>
                </mxCell>
                <mxCell id="243" value="" style="endArrow=block;startArrow=none;endFill=0;startFill=0;endSize=8;html=1;verticalAlign=bottom;dashed=1;labelBackgroundColor=none;fontSize=9;fillColor=none;" edge="1" parent="237" source="193">
                    <mxGeometry width="160" relative="1" as="geometry">
                        <mxPoint x="210" y="220" as="sourcePoint"/>
                        <mxPoint x="50" y="220" as="targetPoint"/>
                    </mxGeometry>
                </mxCell>
                <mxCell id="251" value="" style="endArrow=block;startArrow=none;endFill=0;startFill=0;endSize=8;html=1;verticalAlign=bottom;labelBackgroundColor=none;fontSize=9;fillColor=none;" edge="1" parent="237" target="193">
                    <mxGeometry width="160" relative="1" as="geometry">
                        <mxPoint x="50" y="290" as="sourcePoint"/>
                        <mxPoint x="210" y="290" as="targetPoint"/>
                    </mxGeometry>
                </mxCell>
                <mxCell id="260" value="" style="html=1;points=[];perimeter=orthogonalPerimeter;fillColor=strokeColor;fontSize=9;" vertex="1" parent="237">
                    <mxGeometry x="47.5" y="200" width="5" height="110" as="geometry"/>
                </mxCell>
                <mxCell id="287" value="" style="endArrow=block;startArrow=none;endFill=0;startFill=0;endSize=8;html=1;verticalAlign=bottom;dashed=1;labelBackgroundColor=none;fontSize=11;fillColor=none;" edge="1" parent="237">
                    <mxGeometry width="160" relative="1" as="geometry">
                        <mxPoint x="230" y="540" as="sourcePoint"/>
                        <mxPoint x="-280" y="540" as="targetPoint"/>
                    </mxGeometry>
                </mxCell>
                <mxCell id="300" value="" style="endArrow=block;startArrow=none;endFill=0;startFill=0;endSize=8;html=1;verticalAlign=bottom;labelBackgroundColor=none;fontSize=9;fontColor=#FFFF33;fillColor=none;" edge="1" parent="237" target="193">
                    <mxGeometry width="160" relative="1" as="geometry">
                        <mxPoint x="50" y="580" as="sourcePoint"/>
                        <mxPoint x="210" y="580" as="targetPoint"/>
                    </mxGeometry>
                </mxCell>
                <mxCell id="304" value="" style="endArrow=block;startArrow=none;endFill=0;startFill=0;endSize=8;html=1;verticalAlign=bottom;dashed=1;labelBackgroundColor=none;fontSize=9;fontColor=#FFFFFF;fillColor=none;exitX=-0.3;exitY=0.803;exitDx=0;exitDy=0;exitPerimeter=0;" edge="1" parent="237" source="323">
                    <mxGeometry width="160" relative="1" as="geometry">
                        <mxPoint x="230" y="610" as="sourcePoint"/>
                        <mxPoint x="-280" y="640" as="targetPoint"/>
                    </mxGeometry>
                </mxCell>
                <mxCell id="323" value="" style="html=1;points=[];perimeter=orthogonalPerimeter;fillColor=strokeColor;fontSize=12;fontColor=#FFFFFF;" vertex="1" parent="237">
                    <mxGeometry x="47.5" y="560" width="5" height="100" as="geometry"/>
                </mxCell>
                <mxCell id="241" value="&lt;font style=&quot;font-size: 9px;&quot;&gt;VIEW CALENDER&lt;/font&gt;" style="text;html=1;align=center;verticalAlign=middle;resizable=0;points=[];autosize=1;strokeColor=none;fillColor=none;fontSize=12;" vertex="1" parent="342">
                    <mxGeometry x="165" y="285" width="100" height="30" as="geometry"/>
                </mxCell>
                <mxCell id="244" value="FETCH APPOINTMENT" style="text;html=1;align=center;verticalAlign=middle;resizable=0;points=[];autosize=1;strokeColor=none;fillColor=none;fontSize=9;" vertex="1" parent="342">
                    <mxGeometry x="500" y="300" width="120" height="20" as="geometry"/>
                </mxCell>
                <mxCell id="252" value="EDIT APP. DETAILS" style="text;html=1;align=center;verticalAlign=middle;resizable=0;points=[];autosize=1;strokeColor=none;fillColor=none;fontSize=9;" vertex="1" parent="342">
                    <mxGeometry x="520" y="370" width="100" height="20" as="geometry"/>
                </mxCell>
                <mxCell id="255" value="" style="endArrow=block;startArrow=none;endFill=0;startFill=0;endSize=8;html=1;verticalAlign=bottom;dashed=1;labelBackgroundColor=none;fontSize=9;fillColor=none;" edge="1" parent="342" source="237">
                    <mxGeometry width="160" relative="1" as="geometry">
                        <mxPoint x="300" y="400" as="sourcePoint"/>
                        <mxPoint x="150" y="400" as="targetPoint"/>
                    </mxGeometry>
                </mxCell>
                <mxCell id="256" value="APPOINTMENT&lt;br&gt;&amp;nbsp;SCHEDUALED&amp;nbsp;&lt;br&gt;&amp;nbsp;" style="text;html=1;align=center;verticalAlign=middle;resizable=0;points=[];autosize=1;strokeColor=none;fillColor=none;fontSize=9;" vertex="1" parent="342">
                    <mxGeometry x="175" y="400" width="90" height="50" as="geometry"/>
                </mxCell>
                <mxCell id="262" value="&lt;font style=&quot;font-size: 11px;&quot;&gt;PATIENT QUEUE&lt;/font&gt;" style="shape=umlLifeline;perimeter=lifelinePerimeter;whiteSpace=wrap;html=1;container=1;collapsible=0;recursiveResize=0;outlineConnect=0;fontSize=9;" vertex="1" parent="342">
                    <mxGeometry x="610" y="100" width="100" height="800" as="geometry"/>
                </mxCell>
                <mxCell id="269" value="" style="endArrow=block;startArrow=none;endFill=0;startFill=0;endSize=8;html=1;verticalAlign=bottom;labelBackgroundColor=none;fontSize=11;fillColor=none;" edge="1" parent="262" target="193">
                    <mxGeometry width="160" relative="1" as="geometry">
                        <mxPoint x="50" y="370" as="sourcePoint"/>
                        <mxPoint x="210" y="370" as="targetPoint"/>
                    </mxGeometry>
                </mxCell>
                <mxCell id="271" value="" style="endArrow=block;startArrow=none;endFill=0;startFill=0;endSize=8;html=1;verticalAlign=bottom;dashed=1;labelBackgroundColor=none;fontSize=11;fillColor=none;" edge="1" parent="262" source="262">
                    <mxGeometry width="160" relative="1" as="geometry">
                        <mxPoint x="50" y="400" as="sourcePoint"/>
                        <mxPoint x="-460" y="380" as="targetPoint"/>
                    </mxGeometry>
                </mxCell>
                <mxCell id="312" value="" style="html=1;points=[];perimeter=orthogonalPerimeter;fillColor=strokeColor;fontSize=12;fontColor=#FFFFFF;" vertex="1" parent="262">
                    <mxGeometry x="47.5" y="350" width="5" height="40" as="geometry"/>
                </mxCell>
                <mxCell id="313" value="" style="html=1;points=[];perimeter=orthogonalPerimeter;fillColor=strokeColor;fontSize=12;fontColor=#FFFFFF;" vertex="1" parent="262">
                    <mxGeometry x="47.5" y="440" width="5" height="110" as="geometry"/>
                </mxCell>
                <mxCell id="331" value="" style="endArrow=block;startArrow=none;endFill=0;startFill=0;endSize=8;html=1;verticalAlign=bottom;dashed=1;labelBackgroundColor=none;fontSize=9;fontColor=#FFFFFF;fillColor=none;" edge="1" parent="262">
                    <mxGeometry width="160" relative="1" as="geometry">
                        <mxPoint x="220" y="740" as="sourcePoint"/>
                        <mxPoint x="-460" y="740" as="targetPoint"/>
                    </mxGeometry>
                </mxCell>
                <mxCell id="266" value="&lt;font style=&quot;font-size: 9px;&quot;&gt;VIEW PATIENTS&lt;/font&gt;" style="text;html=1;align=center;verticalAlign=middle;resizable=0;points=[];autosize=1;strokeColor=none;fillColor=none;fontSize=11;" vertex="1" parent="342">
                    <mxGeometry x="175" y="440" width="90" height="30" as="geometry"/>
                </mxCell>
                <mxCell id="270" value="&lt;font style=&quot;font-size: 9px;&quot;&gt;FETCH VISITED PATIENTS&lt;/font&gt;" style="text;html=1;align=center;verticalAlign=middle;resizable=0;points=[];autosize=1;strokeColor=none;fillColor=none;fontSize=11;" vertex="1" parent="342">
                    <mxGeometry x="680" y="440" width="140" height="30" as="geometry"/>
                </mxCell>
                <mxCell id="273" value="&lt;font style=&quot;font-size: 9px;&quot;&gt;SHOW VISITED &lt;br&gt;PATIENTS&lt;/font&gt;" style="text;html=1;align=center;verticalAlign=middle;resizable=0;points=[];autosize=1;strokeColor=none;fillColor=none;fontSize=11;" vertex="1" parent="342">
                    <mxGeometry x="170" y="480" width="90" height="40" as="geometry"/>
                </mxCell>
                <mxCell id="276" value="&lt;font style=&quot;font-size: 9px;&quot;&gt;INDIVIDUAL PATIENT 'A'&lt;/font&gt;" style="text;html=1;align=center;verticalAlign=middle;resizable=0;points=[];autosize=1;strokeColor=none;fillColor=none;fontSize=11;" vertex="1" parent="342">
                    <mxGeometry x="155" y="520" width="120" height="30" as="geometry"/>
                </mxCell>
                <mxCell id="278" value="" style="endArrow=block;startArrow=none;endFill=0;startFill=0;endSize=8;html=1;verticalAlign=bottom;dashed=1;labelBackgroundColor=none;fontSize=11;fillColor=none;" edge="1" parent="342" source="193">
                    <mxGeometry width="160" relative="1" as="geometry">
                        <mxPoint x="820" y="560" as="sourcePoint"/>
                        <mxPoint x="660" y="570" as="targetPoint"/>
                    </mxGeometry>
                </mxCell>
                <mxCell id="279" value="&lt;font style=&quot;font-size: 9px;&quot;&gt;FETCH PATIENT INFO&lt;/font&gt;" style="text;html=1;align=center;verticalAlign=middle;resizable=0;points=[];autosize=1;strokeColor=none;fillColor=none;fontSize=11;" vertex="1" parent="342">
                    <mxGeometry x="700" y="545" width="120" height="30" as="geometry"/>
                </mxCell>
                <mxCell id="280" value="" style="endArrow=block;startArrow=none;endFill=0;startFill=0;endSize=8;html=1;verticalAlign=bottom;dashed=1;labelBackgroundColor=none;fontSize=11;fillColor=none;" edge="1" parent="342" source="193" target="262">
                    <mxGeometry width="160" relative="1" as="geometry">
                        <mxPoint x="820" y="590" as="sourcePoint"/>
                        <mxPoint x="660" y="590" as="targetPoint"/>
                        <Array as="points">
                            <mxPoint x="760" y="600"/>
                        </Array>
                    </mxGeometry>
                </mxCell>
                <mxCell id="284" value="&lt;font style=&quot;font-size: 9px;&quot;&gt;FETCH REPORTS&lt;/font&gt;" style="text;html=1;align=center;verticalAlign=middle;resizable=0;points=[];autosize=1;strokeColor=none;fillColor=none;fontSize=11;" vertex="1" parent="342">
                    <mxGeometry x="700" y="575" width="100" height="30" as="geometry"/>
                </mxCell>
                <mxCell id="285" value="" style="endArrow=block;startArrow=none;endFill=0;startFill=0;endSize=8;html=1;verticalAlign=bottom;dashed=1;labelBackgroundColor=none;fontSize=11;fillColor=none;" edge="1" parent="342" source="193" target="262">
                    <mxGeometry width="160" relative="1" as="geometry">
                        <mxPoint x="820" y="620" as="sourcePoint"/>
                        <mxPoint x="660" y="620" as="targetPoint"/>
                        <Array as="points">
                            <mxPoint x="760" y="630"/>
                        </Array>
                    </mxGeometry>
                </mxCell>
                <mxCell id="286" value="&lt;font style=&quot;font-size: 9px;&quot;&gt;FETCH MEDICAL HISTORY&lt;/font&gt;" style="text;html=1;align=center;verticalAlign=middle;resizable=0;points=[];autosize=1;strokeColor=none;fillColor=none;fontSize=11;" vertex="1" parent="342">
                    <mxGeometry x="690" y="605" width="140" height="30" as="geometry"/>
                </mxCell>
                <mxCell id="289" value="&lt;font style=&quot;font-size: 9px;&quot;&gt;SHOW PATIENT 'A' DETAILS&amp;nbsp;&lt;/font&gt;" style="text;html=1;align=center;verticalAlign=middle;resizable=0;points=[];autosize=1;strokeColor=none;fillColor=none;fontSize=11;" vertex="1" parent="342">
                    <mxGeometry x="160" y="610" width="140" height="30" as="geometry"/>
                </mxCell>
                <mxCell id="295" value="&lt;font style=&quot;font-size: 9px;&quot;&gt;SCHEDUAL APP. OF PATIENT 'A'&lt;/font&gt;" style="text;html=1;align=center;verticalAlign=middle;resizable=0;points=[];autosize=1;strokeColor=none;fillColor=none;fontSize=9;" vertex="1" parent="342">
                    <mxGeometry x="142.5" y="650" width="160" height="20" as="geometry"/>
                </mxCell>
                <mxCell id="301" value="&lt;font color=&quot;#ffffff&quot;&gt;EDIT APP. DETAILS&lt;/font&gt;" style="text;html=1;align=center;verticalAlign=middle;resizable=0;points=[];autosize=1;strokeColor=none;fillColor=none;fontSize=9;fontColor=#FFFF33;" vertex="1" parent="342">
                    <mxGeometry x="500" y="660" width="100" height="20" as="geometry"/>
                </mxCell>
                <mxCell id="302" value="" style="endArrow=block;startArrow=none;endFill=0;startFill=0;endSize=8;html=1;verticalAlign=bottom;dashed=1;labelBackgroundColor=none;fontSize=9;fontColor=#FFFFFF;fillColor=none;" edge="1" parent="342" source="314">
                    <mxGeometry width="160" relative="1" as="geometry">
                        <mxPoint x="820" y="700" as="sourcePoint"/>
                        <mxPoint x="660" y="700" as="targetPoint"/>
                    </mxGeometry>
                </mxCell>
                <mxCell id="303" value="EDITED APP DETAILS&amp;nbsp;" style="text;html=1;align=center;verticalAlign=middle;resizable=0;points=[];autosize=1;strokeColor=none;fillColor=none;fontSize=9;fontColor=#FFFFFF;" vertex="1" parent="342">
                    <mxGeometry x="700" y="690" width="120" height="20" as="geometry"/>
                </mxCell>
                <mxCell id="305" value="&lt;span style=&quot;color: rgb(240, 240, 240);&quot;&gt;APP&amp;nbsp;&lt;/span&gt;&lt;span style=&quot;color: rgb(240, 240, 240);&quot;&gt;SCHEDUALED&amp;nbsp;&lt;/span&gt;&lt;span style=&quot;color: rgb(240, 240, 240);&quot;&gt;OF&amp;nbsp; 'A'&lt;/span&gt;" style="text;html=1;align=center;verticalAlign=middle;resizable=0;points=[];autosize=1;strokeColor=none;fillColor=none;fontSize=9;fontColor=#FFFFFF;" vertex="1" parent="342">
                    <mxGeometry x="160" y="720" width="130" height="20" as="geometry"/>
                </mxCell>
                <mxCell id="308" value="&lt;font style=&quot;font-size: 12px;&quot;&gt;REPORTS&lt;/font&gt;" style="shape=umlLifeline;perimeter=lifelinePerimeter;whiteSpace=wrap;html=1;container=1;collapsible=0;recursiveResize=0;outlineConnect=0;fontSize=9;fontColor=#FFFFFF;" vertex="1" parent="342">
                    <mxGeometry x="780" y="100" width="100" height="790" as="geometry"/>
                </mxCell>
                <mxCell id="329" value="" style="endArrow=block;startArrow=none;endFill=0;startFill=0;endSize=8;html=1;verticalAlign=bottom;dashed=1;labelBackgroundColor=none;fontSize=12;fontColor=#FFFFFF;fillColor=none;" edge="1" parent="308">
                    <mxGeometry width="160" relative="1" as="geometry">
                        <mxPoint x="190" y="720" as="sourcePoint"/>
                        <mxPoint x="50" y="720" as="targetPoint"/>
                    </mxGeometry>
                </mxCell>
                <mxCell id="336" value="" style="html=1;points=[];perimeter=orthogonalPerimeter;fillColor=strokeColor;fontSize=9;fontColor=#FFFFFF;" vertex="1" parent="308">
                    <mxGeometry x="47.5" y="690" width="5" height="60" as="geometry"/>
                </mxCell>
                <mxCell id="311" value="" style="edgeStyle=none;orthogonalLoop=1;jettySize=auto;html=1;shape=flexArrow;rounded=1;startSize=8;endSize=8;fontSize=9;endArrow=none;endFill=0;fillColor=#f5f5f5;gradientColor=#b3b3b3;strokeColor=#666666;" edge="1" parent="342">
                    <mxGeometry width="100" relative="1" as="geometry">
                        <mxPoint x="144.2900000000002" y="440" as="sourcePoint"/>
                        <mxPoint x="144" y="770" as="targetPoint"/>
                        <Array as="points"/>
                    </mxGeometry>
                </mxCell>
                <mxCell id="314" value="" style="html=1;points=[];perimeter=orthogonalPerimeter;fillColor=strokeColor;fontSize=12;fontColor=#FFFFFF;" vertex="1" parent="342">
                    <mxGeometry x="657.5" y="670" width="5" height="50" as="geometry"/>
                </mxCell>
                <mxCell id="320" value="" style="endArrow=block;startArrow=none;endFill=0;startFill=0;endSize=8;html=1;verticalAlign=bottom;dashed=1;labelBackgroundColor=none;fontSize=12;fontColor=#FFFFFF;fillColor=none;" edge="1" parent="342" source="193">
                    <mxGeometry width="160" relative="1" as="geometry">
                        <mxPoint x="820" y="710" as="sourcePoint"/>
                        <mxPoint x="660" y="710" as="targetPoint"/>
                    </mxGeometry>
                </mxCell>
                <mxCell id="324" value="" style="endArrow=block;startArrow=none;endFill=0;startFill=0;endSize=8;html=1;verticalAlign=bottom;dashed=1;labelBackgroundColor=none;fontSize=12;fontColor=#FFFFFF;fillColor=none;exitX=0.2;exitY=0.98;exitDx=0;exitDy=0;exitPerimeter=0;entryX=0.5;entryY=0.6;entryDx=0;entryDy=0;entryPerimeter=0;" edge="1" parent="342" source="314" target="323">
                    <mxGeometry width="160" relative="1" as="geometry">
                        <mxPoint x="650" y="720" as="sourcePoint"/>
                        <mxPoint x="490" y="720" as="targetPoint"/>
                    </mxGeometry>
                </mxCell>
                <mxCell id="325" value="&lt;span style=&quot;font-size: 9px;&quot;&gt;EDIT APP DETAILS&amp;nbsp;&lt;/span&gt;" style="text;html=1;align=center;verticalAlign=middle;resizable=0;points=[];autosize=1;strokeColor=none;fillColor=none;fontSize=12;fontColor=#FFFFFF;" vertex="1" parent="342">
                    <mxGeometry x="505" y="700" width="110" height="30" as="geometry"/>
                </mxCell>
                <mxCell id="327" value="" style="endArrow=block;startArrow=none;endFill=0;startFill=0;endSize=8;html=1;verticalAlign=bottom;labelBackgroundColor=none;fontSize=12;fontColor=#FFFFFF;fillColor=none;" edge="1" parent="342" target="308">
                    <mxGeometry width="160" relative="1" as="geometry">
                        <mxPoint x="150" y="800" as="sourcePoint"/>
                        <mxPoint x="310" y="800" as="targetPoint"/>
                    </mxGeometry>
                </mxCell>
                <mxCell id="328" value="&lt;font style=&quot;font-size: 9px;&quot;&gt;SHOW REPORTS&lt;/font&gt;" style="text;html=1;align=center;verticalAlign=middle;resizable=0;points=[];autosize=1;strokeColor=none;fillColor=none;fontSize=12;fontColor=#FFFFFF;" vertex="1" parent="342">
                    <mxGeometry x="160" y="775" width="100" height="30" as="geometry"/>
                </mxCell>
                <mxCell id="330" value="&lt;font style=&quot;font-size: 9px;&quot;&gt;FETCH REPORT&lt;/font&gt;" style="text;html=1;align=center;verticalAlign=middle;resizable=0;points=[];autosize=1;strokeColor=none;fillColor=none;fontSize=12;fontColor=#FFFFFF;" vertex="1" parent="342">
                    <mxGeometry x="865" y="795" width="90" height="30" as="geometry"/>
                </mxCell>
                <mxCell id="332" value="DISPLAY REPORTS" style="text;html=1;align=center;verticalAlign=middle;resizable=0;points=[];autosize=1;strokeColor=none;fillColor=none;fontSize=9;fontColor=#FFFFFF;" vertex="1" parent="342">
                    <mxGeometry x="160" y="820" width="110" height="20" as="geometry"/>
                </mxCell>
                <mxCell id="338" value="SEQUENCE DIAGRAM" style="shape=umlFrame;whiteSpace=wrap;html=1;width=120;height=30;boundedLbl=1;verticalAlign=middle;align=left;spacingLeft=5;fontSize=9;fontColor=#FFFFFF;" vertex="1" parent="342">
                    <mxGeometry width="1120" height="950" as="geometry"/>
                </mxCell>
            </root>
        </mxGraphModel>
    </diagram>
</mxfile>